<svg xmlns="http://www.w3.org/2000/svg" version="1.1" xmlns:xlink="http://www.w3.org/1999/xlink" width="128" height="128"><svg width="128" height="128" viewBox="0 0 128 128" fill="none" xmlns="http://www.w3.org/2000/svg">
<g clip-path="url(#clip0_127_126)">
<rect width="128" height="128" fill="#FF9D00"></rect>
<path d="M44.1726 108.152C38.2846 108.152 33.6126 107.096 30.1566 104.984C26.7646 102.808 24.3646 99.8 22.9566 95.96C21.5486 92.056 20.8446 87.48 20.8446 82.232V54.2C20.8446 48.824 21.5486 44.216 22.9566 40.376C24.3646 36.472 26.7646 33.464 30.1566 31.352C33.6126 29.24 38.2846 28.184 44.1726 28.184C49.9326 28.184 54.4126 29.144 57.6126 31.064C60.8766 32.92 63.1806 35.544 64.5246 38.936C65.8686 42.328 66.5406 46.232 66.5406 50.648V57.368H49.7406V49.592C49.7406 48.056 49.6446 46.584 49.4526 45.176C49.3246 43.768 48.8766 42.616 48.1086 41.72C47.3406 40.76 46.0286 40.28 44.1726 40.28C42.3806 40.28 41.0366 40.76 40.1406 41.72C39.3086 42.68 38.7646 43.896 38.5086 45.368C38.3166 46.776 38.2206 48.28 38.2206 49.88V86.456C38.2206 88.184 38.3486 89.784 38.6046 91.256C38.9246 92.664 39.5006 93.816 40.3326 94.712C41.2286 95.544 42.5086 95.96 44.1726 95.96C45.9646 95.96 47.2446 95.512 48.0126 94.616C48.7806 93.656 49.2606 92.44 49.4526 90.968C49.6446 89.496 49.7406 87.992 49.7406 86.456V78.296H66.5406V85.016C66.5406 89.432 65.8686 93.4 64.5246 96.92C63.2446 100.376 60.9726 103.128 57.7086 105.176C54.5086 107.16 49.9966 108.152 44.1726 108.152ZM75.9944 107V29.24H109.594V40.856H93.1784V60.44H107.482V72.44H93.1784V107H75.9944Z" fill="white"></path>
</g>
<defs>
<clipPath id="SvgjsClipPath1064">
<rect width="128" height="128" fill="white"></rect>
</clipPath>
</defs>
</svg><style>@media (prefers-color-scheme: light) { :root { filter: none; } }
@media (prefers-color-scheme: dark) { :root { filter: none; } }
</style></svg>